<svg width="42" height="77" viewBox="0 0 42 77" fill="none" xmlns="http://www.w3.org/2000/svg">
<path fill-rule="evenodd" clip-rule="evenodd" d="M10.6081 16.5339C10.699 16.4713 10.7678 16.3802 10.7964 16.2743C11.878 12.0966 13.5544 8.01407 15.7796 4.13992C15.9029 3.92415 15.8135 3.67175 15.5806 3.57509C15.3476 3.47844 15.0588 3.57493 14.9352 3.78985C12.672 7.73056 10.9658 11.8838 9.86506 16.133C9.80517 16.3654 9.96454 16.5854 10.2215 16.6247C10.3606 16.6456 10.4999 16.6092 10.6081 16.5339Z" fill="#C9AA7C"/>
<path fill-rule="evenodd" clip-rule="evenodd" d="M17.1969 15.7413C17.2869 15.679 17.3544 15.5909 17.3832 15.486C18.5254 11.3184 20.2601 7.25202 22.5392 3.40158C22.6661 3.18758 22.5814 2.93304 22.3487 2.83358C22.1172 2.7347 21.8272 2.82695 21.7003 3.04095C19.3821 6.95821 17.6178 11.0952 16.4554 15.3346C16.3921 15.5661 16.5481 15.7888 16.8045 15.8301C16.9455 15.8541 17.087 15.818 17.1969 15.7413Z" fill="#C9AA7C"/>
<path fill-rule="evenodd" clip-rule="evenodd" d="M13.3347 18.2312C13.4291 18.166 13.4988 18.0709 13.5253 17.9611C14.4953 13.7688 16.0647 9.65759 18.1876 5.74176C18.3052 5.52389 18.2103 5.2739 17.9736 5.18277C17.737 5.09165 17.4504 5.19297 17.3328 5.41084C15.1721 9.39408 13.5771 13.5757 12.5893 17.841C12.5357 18.0735 12.7014 18.29 12.9587 18.3229C13.095 18.3409 13.23 18.3039 13.3347 18.2312Z" fill="#C9AA7C"/>
<path fill-rule="evenodd" clip-rule="evenodd" d="M21.1984 56.3875L15.1277 53.5172C16.3828 55.5662 17.795 57.5331 19.3542 59.3996L25.0398 60.7323C23.6546 59.3527 22.3733 57.9053 21.1984 56.3875Z" fill="#C9AA7C"/>
<path fill-rule="evenodd" clip-rule="evenodd" d="M16.7858 49.4162C16.6574 49.3661 16.5657 49.2671 16.5315 49.1471L11.4491 46.152C12.2529 48.1937 13.2066 50.1844 14.2968 52.1085L20.0434 54.8238C18.8284 53.1022 17.7417 51.299 16.7858 49.4162Z" fill="#C9AA7C"/>
<path fill-rule="evenodd" clip-rule="evenodd" d="M11.7542 26.6895L8.45038 24.3432C8.26368 26.2776 8.19364 28.2108 8.2382 30.1351L12.0108 32.813C11.8082 30.8011 11.7239 28.7556 11.7542 26.6895Z" fill="#C9AA7C"/>
<path fill-rule="evenodd" clip-rule="evenodd" d="M14.1241 42.9726C13.966 42.4868 13.8161 41.997 13.6737 41.5043C13.6359 41.4908 13.5992 41.4733 13.5649 41.4498L9.14225 38.3088C9.58084 40.502 10.1777 42.6601 10.9291 44.7649L15.981 47.7428C15.2783 46.2021 14.6576 44.6122 14.1241 42.9726Z" fill="#C9AA7C"/>
<path fill-rule="evenodd" clip-rule="evenodd" d="M12.1476 34.0248C12.0932 34.0112 12.0414 33.9878 11.9953 33.9547L8.28017 31.3177C8.37194 33.2212 8.57741 35.1123 8.89578 36.9805L13.2925 40.1021C12.7873 38.124 12.4051 36.0948 12.1476 34.0248Z" fill="#C9AA7C"/>
<path fill-rule="evenodd" clip-rule="evenodd" d="M21.8808 55.6799C21.8891 55.6913 21.8973 55.7028 21.9065 55.7139C21.9779 55.7639 22.0278 55.8305 22.0543 55.9061C23.2363 57.4275 24.5281 58.8794 25.9252 60.2604L26.0103 55.2888C24.6676 53.7124 23.4463 52.0525 22.3551 50.3214L21.9163 55.5495C21.912 55.5952 21.8988 55.6387 21.8808 55.6799Z" fill="#C9AA7C"/>
<path fill-rule="evenodd" clip-rule="evenodd" d="M14.6088 41.0726C14.6002 41.0795 14.5896 41.0823 14.5818 41.088C14.7344 41.6226 14.8949 42.1522 15.0659 42.6782C15.5947 44.3 16.2084 45.8718 16.9041 47.3944L18.2614 41.8074C17.6422 40.0144 17.1528 38.1993 16.793 36.3622L14.7768 40.8731C14.7407 40.9546 14.6814 41.0232 14.6088 41.0726Z" fill="#C9AA7C"/>
<path fill-rule="evenodd" clip-rule="evenodd" d="M13.1564 34.1505C13.4062 36.068 13.7645 37.95 14.2312 39.7885L16.5013 34.7069C16.2481 33.043 16.1057 31.3641 16.0623 29.6722L13.1726 34.1298C13.1674 34.1376 13.1608 34.1439 13.1564 34.1505Z" fill="#C9AA7C"/>
<path fill-rule="evenodd" clip-rule="evenodd" d="M12.9893 32.7155L16.0034 28.0654C16.0184 28.0441 16.0349 28.0242 16.0527 28.0058C16.0803 26.1885 16.2305 24.3575 16.4997 22.5146L12.7363 26.4782C12.699 28.5836 12.7824 30.6683 12.9893 32.7155Z" fill="#C9AA7C"/>
<path fill-rule="evenodd" clip-rule="evenodd" d="M21.0245 54.5237L21.4961 48.9041C20.4773 47.1381 19.5979 45.3048 18.8575 43.4225L17.5603 48.766C18.5649 50.7767 19.7203 52.6969 21.0245 54.5237Z" fill="#C9AA7C"/>
<path fill-rule="evenodd" clip-rule="evenodd" d="M26.3173 61.9569C26.2529 61.9524 26.1945 61.9353 26.141 61.9096L20.3482 60.552C21.7532 62.1327 23.2643 63.634 24.8753 65.0449L30.3399 65.2897C28.9219 64.2324 27.5779 63.1227 26.3173 61.9569Z" fill="#C9AA7C"/>
<path fill-rule="evenodd" clip-rule="evenodd" d="M30.6801 60.464C29.2043 59.2141 28.2555 57.7903 26.9707 56.3801L26.8886 61.1854C28.2207 62.4283 29.6454 63.6074 31.1586 64.7263L31.0601 60.8467C30.9458 60.7137 30.8208 60.5835 30.6801 60.464Z" fill="#C9AA7C"/>
<path fill-rule="evenodd" clip-rule="evenodd" d="M16.4625 21.0132C16.4502 21.0792 16.441 21.1453 16.4289 21.2122C16.3751 21.2393 16.3262 21.2733 16.2842 21.3173L12.7774 25.1259C12.8565 23.273 13.4311 19.4902 13.4885 19.4494C13.4965 19.4445 13.5033 19.439 13.5103 19.4344L17.0801 16.7071L16.4625 21.0132Z" fill="#C9AA7C"/>
<path fill-rule="evenodd" clip-rule="evenodd" d="M9.0503 20.085C8.85295 21.1451 8.69139 22.2074 8.5654 23.271L11.7822 25.5552C11.8525 23.5611 12.0329 21.5493 12.3202 19.5306C12.2806 19.514 12.2419 19.4934 12.2085 19.4651L9.54685 17.3558L9.0503 20.085Z" fill="#C9AA7C"/>
<path fill-rule="evenodd" clip-rule="evenodd" d="M31.2447 65.2181C31.4203 65.0311 31.7216 64.9967 31.919 65.142C34.6409 67.1325 37.5847 68.8498 40.6966 70.2904L39.6246 70.7794C36.6767 69.3713 33.8822 67.7166 31.2861 65.817C31.088 65.6728 31.0699 65.4041 31.2447 65.2181Z" fill="#C9AA7C"/>
</svg>
