<svg width="48" height="48" viewBox="0 0 48 48" fill="none" xmlns="http://www.w3.org/2000/svg">
<path fill-rule="evenodd" clip-rule="evenodd" d="M0 24C0 10.7452 10.7452 0 24 0C37.2548 0 48 10.7452 48 24C48 37.2548 37.2548 48 24 48C10.7452 48 0 37.2548 0 24Z" fill="url(#paint0_linear)"/>
<path fill-rule="evenodd" clip-rule="evenodd" d="M24.0012 11.2002C20.5248 11.2002 20.0886 11.2154 18.7232 11.2775C17.3605 11.3399 16.4304 11.5557 15.6165 11.8722C14.7747 12.1991 14.0605 12.6365 13.349 13.3482C12.637 14.0597 12.1997 14.7738 11.8717 15.6154C11.5544 16.4296 11.3384 17.36 11.277 18.7221C11.216 20.0875 11.2 20.524 11.2 24.0003C11.2 27.4766 11.2154 27.9116 11.2773 29.2769C11.34 30.6396 11.5557 31.5697 11.872 32.3836C12.1992 33.2255 12.6365 33.9396 13.3482 34.6511C14.0594 35.3631 14.7736 35.8015 15.6149 36.1285C16.4293 36.445 17.3597 36.6607 18.7222 36.7231C20.0875 36.7853 20.5235 36.8005 23.9996 36.8005C27.4761 36.8005 27.9111 36.7853 29.2764 36.7231C30.6391 36.6607 31.5703 36.445 32.3847 36.1285C33.2263 35.8015 33.9394 35.3631 34.6506 34.6511C35.3626 33.9396 35.7999 33.2255 36.1279 32.3839C36.4426 31.5697 36.6586 30.6393 36.7226 29.2772C36.784 27.9118 36.8 27.4766 36.8 24.0003C36.8 20.524 36.784 20.0878 36.7226 18.7224C36.6586 17.3597 36.4426 16.4296 36.1279 15.6157C35.7999 14.7738 35.3626 14.0597 34.6506 13.3482C33.9386 12.6362 33.2266 12.1989 32.3839 11.8722C31.5679 11.5557 30.6372 11.3399 29.2745 11.2775C27.9092 11.2154 27.4745 11.2002 23.9972 11.2002H24.0012ZM22.8529 13.5069C23.1937 13.5064 23.5739 13.5069 24.0012 13.5069C27.4188 13.5069 27.8239 13.5192 29.1735 13.5805C30.4215 13.6376 31.0988 13.8461 31.55 14.0213C32.1474 14.2533 32.5732 14.5306 33.021 14.9786C33.469 15.4266 33.7463 15.8533 33.9789 16.4506C34.1541 16.9013 34.3629 17.5787 34.4197 18.8267C34.481 20.176 34.4943 20.5814 34.4943 23.9974C34.4943 27.4134 34.481 27.8188 34.4197 29.1681C34.3626 30.4161 34.1541 31.0935 33.9789 31.5441C33.7469 32.1415 33.469 32.5668 33.021 33.0146C32.573 33.4626 32.1476 33.7399 31.55 33.9719C31.0994 34.1479 30.4215 34.3559 29.1735 34.413C27.8241 34.4743 27.4188 34.4876 24.0012 34.4876C20.5832 34.4876 20.1782 34.4743 18.8288 34.413C17.5808 34.3554 16.9035 34.1468 16.452 33.9716C15.8547 33.7396 15.428 33.4623 14.98 33.0143C14.532 32.5663 14.2546 32.1407 14.0221 31.5431C13.8469 31.0924 13.6381 30.4151 13.5813 29.167C13.52 27.8177 13.5077 27.4124 13.5077 23.9942C13.5077 20.576 13.52 20.1728 13.5813 18.8235C13.6384 17.5755 13.8469 16.8981 14.0221 16.4469C14.2541 15.8496 14.532 15.4229 14.98 14.9749C15.428 14.5269 15.8547 14.2496 16.452 14.017C16.9032 13.841 17.5808 13.633 18.8288 13.5757C20.0096 13.5224 20.4672 13.5064 22.8529 13.5037V13.5069ZM30.8338 15.6322C29.9857 15.6322 29.2977 16.3194 29.2977 17.1677C29.2977 18.0157 29.9857 18.7037 30.8338 18.7037C31.6818 18.7037 32.3698 18.0157 32.3698 17.1677C32.3698 16.3197 31.6818 15.6317 30.8338 15.6317V15.6322ZM24.0012 17.4269C20.371 17.4269 17.4277 20.3702 17.4277 24.0003C17.4277 27.6305 20.371 30.5724 24.0012 30.5724C27.6313 30.5724 30.5735 27.6305 30.5735 24.0003C30.5735 20.3702 27.6311 17.4269 24.0009 17.4269H24.0012ZM24.0012 19.7336C26.3574 19.7336 28.2679 21.6438 28.2679 24.0003C28.2679 26.3566 26.3574 28.267 24.0012 28.267C21.6446 28.267 19.7344 26.3566 19.7344 24.0003C19.7344 21.6438 21.6446 19.7336 24.0012 19.7336V19.7336Z" fill="white"/>
<defs>
<linearGradient id="paint0_linear" x1="-6.6978" y1="14.6118" x2="13.8806" y2="62.7249" gradientUnits="userSpaceOnUse">
<stop stop-color="#5C47CC"/>
<stop offset="0.316993" stop-color="#BA2594"/>
<stop offset="0.658869" stop-color="#FE7400"/>
<stop offset="1" stop-color="#FFD35F"/>
</linearGradient>
</defs>
</svg>
