<svg width="48" height="48" viewBox="0 0 48 48" fill="none" xmlns="http://www.w3.org/2000/svg">
<path fill-rule="evenodd" clip-rule="evenodd" d="M0 24C0 10.7452 10.7452 0 24 0C37.2548 0 48 10.7452 48 24C48 37.2548 37.2548 48 24 48C10.7452 48 0 37.2548 0 24Z" fill="#4C6C91"/>
<path fill-rule="evenodd" clip-rule="evenodd" d="M25.2554 31.8762C25.2554 31.8762 25.7174 31.8258 25.9541 31.5763C26.1707 31.3477 26.1632 30.9163 26.1632 30.9163C26.1632 30.9163 26.1344 28.9019 27.0872 28.6044C28.0263 28.3119 29.2321 30.5525 30.5117 31.4141C31.4783 32.0655 32.2121 31.9229 32.2121 31.9229L35.6315 31.8762C35.6315 31.8762 37.4195 31.768 36.5719 30.3878C36.5017 30.2747 36.0773 29.3664 34.0301 27.5007C31.8853 25.5478 32.1733 25.8636 34.7551 22.485C36.3277 20.4275 36.9563 19.1714 36.7597 18.6343C36.5731 18.1206 35.4162 18.257 35.4162 18.257L31.5672 18.2804C31.5672 18.2804 31.2818 18.2423 31.0702 18.3664C30.8636 18.4881 30.7296 18.772 30.7296 18.772C30.7296 18.772 30.1211 20.3636 29.3085 21.718C27.5943 24.5744 26.9094 24.7255 26.629 24.5486C25.9766 24.1344 26.1394 22.8869 26.1394 22.0007C26.1394 19.2317 26.5676 18.0776 25.3067 17.7789C24.8885 17.6794 24.5805 17.6142 23.51 17.6032C22.1364 17.5897 20.9745 17.6081 20.3159 17.924C19.8777 18.1341 19.5396 18.6036 19.7462 18.6307C20.0004 18.6638 20.5763 18.7831 20.8818 19.1911C21.2762 19.7184 21.2625 20.9007 21.2625 20.9007C21.2625 20.9007 21.4891 24.1602 20.7328 24.5645C20.2145 24.8423 19.5033 24.2757 17.9745 21.6836C17.1919 20.3563 16.6009 18.8888 16.6009 18.8888C16.6009 18.8888 16.487 18.6147 16.2829 18.4672C16.0362 18.289 15.6919 18.2337 15.6919 18.2337L12.0345 18.257C12.0345 18.257 11.4849 18.2718 11.2833 18.5065C11.1042 18.7142 11.2695 19.1456 11.2695 19.1456C11.2695 19.1456 14.133 25.7223 17.376 29.0371C20.3497 32.0753 23.7254 31.8762 23.7254 31.8762H25.2554Z" fill="white"/>
</svg>
