<svg width="80" height="80" viewBox="0 0 80 80" fill="none" xmlns="http://www.w3.org/2000/svg">
<path fill-rule="evenodd" clip-rule="evenodd" d="M76.8503 41.6249L58.8631 23.6376L66.6409 10.9274C66.788 10.6874 66.8266 10.395 66.7436 10.1254C66.6616 9.85676 66.4681 9.63454 66.2122 9.51602C65.4952 9.18417 60.8868 7.62761 51.6828 16.4583L42.4769 7.25131C39.4072 4.18165 34.4137 4.18363 31.345 7.25131L22.2852 16.3111L10.1361 2.42263C9.14347 1.33718 7.78741 0.72187 6.31679 0.689277C4.83234 0.664585 3.46246 1.21175 2.42345 2.25176C1.38443 3.29177 0.828382 4.67351 0.860975 6.14414C0.89258 7.61378 1.50789 8.97083 2.60913 9.97825L16.4531 22.1433L8.48371 30.1127C5.41605 33.1814 5.41605 38.176 8.48371 41.2447L27.1287 59.8898L19.7736 71.9077C19.0734 73.0524 18.86 74.4025 19.1751 75.7092C19.4892 77.0139 20.2941 78.1191 21.4388 78.8193C22.2556 79.3201 23.1603 79.5581 24.0551 79.5581C25.7479 79.5581 27.4043 78.7038 28.3514 77.1551L34.4423 67.2015L42.8581 75.6173C44.3929 77.1522 46.4087 77.9196 48.4236 77.9196C50.4394 77.9196 52.4552 77.1522 53.99 75.6173L76.8533 52.7539C79.919 49.6872 79.919 44.6936 76.8503 41.6249ZM39.3155 51.7988L37.274 50.5494L39.8153 46.3973C39.9525 46.1731 39.995 45.9045 39.9338 45.6497C39.8725 45.3949 39.7116 45.1756 39.4883 45.0393L34.6943 42.105C51.433 14.9939 60.9263 11.5124 64.1372 11.2349L39.3155 51.7988ZM9.87855 31.5118C7.58028 33.8111 7.58028 37.5514 9.87855 39.8507L28.1877 58.1592L33.5358 49.4203C33.8203 48.9541 34.4287 48.8059 34.8929 49.0933L35.5892 49.52L37.6148 46.2093L32.8198 43.274C32.5966 43.1377 32.4356 42.9184 32.3743 42.6636C32.3131 42.4088 32.3556 42.1401 32.4929 41.9169C39.6099 30.2851 45.5092 22.7314 50.2805 17.8484L41.0805 8.64723C38.7803 6.34892 35.041 6.34892 32.7427 8.64723L22.9373 18.4538C22.7457 18.6454 22.482 18.7689 22.2064 18.7422C21.9329 18.7333 21.6761 18.6118 21.4953 18.4054L8.66472 3.7395C8.05435 3.07282 7.20003 2.68466 6.27361 2.66392C5.32645 2.65108 4.47509 2.99282 3.82028 3.64863C3.16546 4.30346 2.81485 5.17458 2.83559 6.10102C2.85633 7.02745 3.24448 7.88278 3.92793 8.50896L18.5462 21.3576C18.7516 21.5383 18.8721 21.7951 18.881 22.0677C18.8909 22.3403 18.7852 22.605 18.5926 22.7976L9.87855 31.5118ZM26.6646 76.1268C25.7846 77.5639 23.9032 78.0143 22.4681 77.1372C22.4681 77.1372 22.4679 77.1372 22.4676 77.1371C22.4674 77.137 22.4671 77.1367 22.4671 77.1362C21.7718 76.7105 21.2839 76.0409 21.0933 75.2478C20.9027 74.4547 21.0311 73.6349 21.4558 72.9396L34.7031 51.293L39.9091 54.4792L26.6646 76.1268ZM44.2517 74.2228C46.55 76.5211 50.2893 76.5231 52.5895 74.2228L75.4538 51.3585C77.7521 49.0602 77.7521 45.3189 75.4538 43.0206L57.8024 25.3691L40.9994 52.8291L41.7836 53.3091C42.2497 53.5935 42.3959 54.2009 42.1105 54.6661L35.4991 65.4702L44.2517 74.2228Z" fill="black"/>
</svg>
