<svg width="79" height="80" viewBox="0 0 79 80" fill="none" xmlns="http://www.w3.org/2000/svg">
<path fill-rule="evenodd" clip-rule="evenodd" d="M73.2093 40.667H77.8891C78.4342 40.667 78.8766 41.1085 78.8766 41.6546V78.838C78.8766 79.3842 78.4342 79.8257 77.8891 79.8257H73.2093C72.6642 79.8257 72.2218 79.3842 72.2218 78.838V76.7393H58.6575V78.7551C58.6575 79.3013 58.2151 79.7427 57.67 79.7427C57.1249 79.7427 56.6825 79.3013 56.6825 78.7551V76.7393H42.6906V78.838C42.6906 79.3842 42.2482 79.8257 41.7031 79.8257H37.0233C36.4782 79.8257 36.0358 79.3842 36.0358 78.838V76.7393H22.6394V78.7551C22.6394 79.3013 22.197 79.7427 21.6519 79.7427C21.1068 79.7427 20.6644 79.3013 20.6644 78.7551V76.7393H6.67252V78.838C6.67252 79.3842 6.23012 79.8257 5.68502 79.8257H1.00526C0.460161 79.8257 0.0177612 79.3842 0.0177612 78.838V41.6546C0.0177612 41.1085 0.460161 40.667 1.00526 40.667H5.68502C6.23012 40.667 6.67252 41.1085 6.67252 41.6546V43.7533H36.0349V41.6546C36.0349 41.1085 36.4773 40.667 37.0224 40.667H41.7021C42.2472 40.667 42.6896 41.1085 42.6896 41.6546V43.7533H72.2218V41.6546C72.2218 41.1085 72.6642 40.667 73.2093 40.667ZM68.6342 59.2593H72.2218V53.48H62.4198C62.5443 54.0509 62.6183 54.6435 62.6134 55.255C62.6045 56.1745 62.4228 57.0477 62.1453 57.8636C64.7402 56.8111 67.4166 56.9372 67.6742 56.9493L67.6872 56.9499C68.1701 56.9815 68.5591 57.3589 68.6055 57.8409C68.6125 57.909 68.6599 58.4523 68.6342 59.2593ZM56.6499 67.2036C55.216 67.1888 52.3839 66.9201 50.5886 65.1765C48.8022 63.4419 48.4457 60.6097 48.3855 59.1743C49.8184 59.1901 52.6505 59.4588 54.4458 61.2024C56.2322 62.9371 56.5896 65.7692 56.6499 67.2036ZM58.6565 66.6793V67.1909C60.0963 67.1287 62.9116 66.7682 64.6388 64.9873C66.3817 63.1917 66.6503 60.358 66.6651 58.9248C65.2303 58.9851 62.3991 59.3416 60.6651 61.1294C59.1088 62.7324 58.7306 65.1562 58.6565 66.6793ZM60.6384 55.2386C60.6147 57.8933 58.6753 60.2458 57.6335 61.3184C56.6104 60.23 54.7164 57.8528 54.7401 55.1862C54.7638 52.5315 56.7032 50.179 57.745 49.1064C58.7671 50.1938 60.6621 52.572 60.6384 55.2386ZM47.3022 57.2354C47.4671 57.2166 50.4978 56.9529 53.3131 58.155C52.9754 57.2314 52.7552 56.2279 52.7641 55.168C52.769 54.5863 52.8431 54.0232 52.9665 53.48H42.6896V59.2593H46.4095C46.3838 58.6301 46.4066 58.2123 46.4105 58.154C46.4421 57.67 46.8203 57.2818 47.3022 57.2354ZM42.6896 61.2349H46.6228C46.927 62.9555 47.6261 65.0544 49.213 66.5952C49.4955 66.8688 49.7957 67.1108 50.1057 67.3301H42.6896V61.2349ZM68.4357 61.2349C68.1543 62.9031 67.5075 64.8677 66.0568 66.3621C65.6974 66.7325 65.3053 67.0496 64.8975 67.3301H72.2218V61.2349H68.4357ZM72.2218 45.7295V51.5068H61.7523C60.5564 48.8858 58.5232 47.0933 58.4017 46.9877C58.0344 46.6697 57.4932 46.6647 57.1219 46.9758C56.9975 47.0805 54.8971 48.869 53.6597 51.5068H42.6896V45.7295H72.2218ZM32.6171 59.2593H36.0358H36.0368V53.48H26.4028C26.5282 54.0509 26.6022 54.6435 26.5963 55.255C26.5874 56.1745 26.4057 57.0477 26.1282 57.8636C28.7231 56.8111 31.3995 56.9372 31.6571 56.9493L31.6701 56.9499C32.153 56.9815 32.5421 57.3589 32.5885 57.8409C32.5954 57.909 32.6428 58.4523 32.6171 59.2593ZM20.6318 67.2002C19.195 67.1814 16.3569 66.9088 14.5706 65.1756C12.7842 63.4423 12.4277 60.6128 12.3665 59.1777C13.8033 59.1955 16.6413 59.4681 18.4277 61.2024C20.2141 62.9356 20.5716 65.7642 20.6318 67.2002ZM22.6394 66.7642V67.1909C24.0792 67.1287 26.8936 66.7682 28.6217 64.9873C30.3646 63.1917 30.6332 60.358 30.648 58.9248C29.2132 58.9851 26.382 59.3416 24.648 61.1294C23.069 62.7571 22.7056 65.2451 22.6394 66.7642ZM24.6204 55.2386C24.5967 57.8933 22.6572 60.2448 21.6154 61.3184C20.5923 60.23 18.6983 57.8528 18.722 55.1862C18.7457 52.5315 20.6852 50.18 21.727 49.1064C22.75 50.1938 24.6441 52.572 24.6204 55.2386ZM11.2842 57.2354C11.451 57.2186 14.4817 56.9549 17.2961 58.156C16.9583 57.2314 16.7381 56.2279 16.747 55.168C16.7519 54.5863 16.826 54.0232 16.9494 53.48H6.67254V59.2593H10.3915C10.3658 58.6301 10.3885 58.2123 10.3924 58.154C10.424 57.67 10.8023 57.2818 11.2842 57.2354ZM6.67254 61.2349H10.6048C10.9089 62.9555 11.6081 65.0544 13.196 66.5952C13.4784 66.8688 13.7786 67.1108 14.0887 67.3301H6.67254V61.2349ZM32.4177 61.2349C32.1362 62.9031 31.4894 64.8677 30.0388 66.3621C29.6793 66.7325 29.2883 67.0496 28.8795 67.3301H36.0359V61.2349H32.4177ZM36.0358 45.7295V51.5068H25.7342C24.5384 48.8858 22.5051 47.0933 22.3837 46.9877C22.0173 46.6697 21.4752 46.6647 21.1039 46.9758C20.9794 47.0805 18.879 48.869 17.6417 51.5068H6.67254V45.7295H36.0358ZM1.99276 77.8511H4.69752V42.6426H1.99276V77.8511ZM6.67254 74.7637V69.3042H20.6644V74.7637H6.67254ZM22.6394 69.3042V74.7637H36.0358V69.3042H22.6394ZM40.7146 77.8511H38.0099V42.6426H40.7146V77.8511ZM42.6896 69.3042V74.7637H56.6815V69.3042H42.6896ZM58.6565 74.7637V69.3042H72.2208V74.7637H58.6565ZM74.1968 77.8511H76.9015V42.6426H74.1968V77.8511Z" fill="black"/>
<path fill-rule="evenodd" clip-rule="evenodd" d="M39.5188 9.54053C44.0168 9.54053 47.6775 13.2007 47.6775 17.7004C47.6775 22.2001 44.0168 25.8613 39.5188 25.8613C35.0207 25.8613 31.36 22.2001 31.36 17.7004C31.36 13.2007 35.0207 9.54053 39.5188 9.54053ZM33.3351 17.6999C33.3351 21.1101 36.1089 23.8853 39.5188 23.8853C42.9286 23.8853 45.7025 21.1101 45.7025 17.6999C45.7025 14.2898 42.9286 11.5156 39.5188 11.5156C36.1089 11.5156 33.3351 14.2898 33.3351 17.6999Z" fill="black"/>
<path fill-rule="evenodd" clip-rule="evenodd" d="M40.5062 5.89969V1.80148C40.5062 1.25539 40.0638 0.813965 39.5187 0.813965C38.9736 0.813965 38.5312 1.25539 38.5312 1.80148V5.89969C38.5312 6.44579 38.9736 6.88721 39.5187 6.88721C40.0638 6.88721 40.5062 6.4448 40.5062 5.89969Z" fill="black"/>
<path fill-rule="evenodd" clip-rule="evenodd" d="M33.6777 8.43604C33.8436 8.43604 34.0115 8.39455 34.1655 8.30665C34.6395 8.03703 34.8044 7.43259 34.5349 6.95951L32.5055 3.39905C32.235 2.92597 31.6316 2.76004 31.1586 3.02967C30.6846 3.2993 30.5197 3.90373 30.7893 4.37682L32.8186 7.93727C33.0003 8.25628 33.334 8.43604 33.6777 8.43604Z" fill="black"/>
<path fill-rule="evenodd" clip-rule="evenodd" d="M29.8719 10.8389L26.3455 8.74958C25.8755 8.47199 25.2701 8.62708 24.9927 9.09631C24.7142 9.56652 24.8692 10.1721 25.3393 10.4497L28.8656 12.5389C29.0236 12.6328 29.1964 12.6772 29.3683 12.6772C29.706 12.6772 30.0348 12.5044 30.2185 12.1932C30.496 11.722 30.3409 11.1165 29.8719 10.8389Z" fill="black"/>
<path fill-rule="evenodd" clip-rule="evenodd" d="M27.7231 18.4917C28.2603 18.4917 28.7007 18.0601 28.7106 17.5208C28.7195 16.9756 28.285 16.5263 27.7399 16.5164L23.6427 16.4482C23.6378 16.4482 23.6319 16.4482 23.6259 16.4482C23.0887 16.4482 22.6483 16.8798 22.6384 17.4191C22.6296 17.9643 23.0641 18.4137 23.6092 18.4236L27.7063 18.4917C27.7112 18.4917 27.7172 18.4917 27.7231 18.4917Z" fill="black"/>
<path fill-rule="evenodd" clip-rule="evenodd" d="M25.5802 26.3276C25.7412 26.3276 25.9031 26.2891 26.0542 26.2062L29.6477 24.2358C30.1257 23.9731 30.3015 23.3736 30.0388 22.8955C29.7751 22.4165 29.1757 22.2397 28.6978 22.5044L25.1042 24.4748C24.6263 24.7375 24.4505 25.337 24.7132 25.815C24.8929 26.1429 25.2316 26.3276 25.5802 26.3276Z" fill="black"/>
<path fill-rule="evenodd" clip-rule="evenodd" d="M30.6737 32.0809C30.8357 32.1806 31.0134 32.2271 31.1902 32.2271C31.522 32.2271 31.8459 32.0602 32.0325 31.756L34.1794 28.2652C34.4657 27.8011 34.3206 27.1928 33.8555 26.9074C33.3904 26.621 32.7821 26.7652 32.4977 27.2313L30.3508 30.7221C30.0645 31.1872 30.2096 31.7955 30.6737 32.0809Z" fill="black"/>
<path fill-rule="evenodd" clip-rule="evenodd" d="M38.1382 29.4597L38.002 33.5558C37.9832 34.1011 38.4108 34.5584 38.9559 34.5752C38.9668 34.5762 38.9776 34.5762 38.9895 34.5762C39.5197 34.5762 39.9582 34.1554 39.976 33.621L40.1122 29.5249C40.131 28.9797 39.7034 28.5223 39.1583 28.5055C38.6122 28.4858 38.157 28.9135 38.1382 29.4597Z" fill="black"/>
<path fill-rule="evenodd" clip-rule="evenodd" d="M46.0511 32.2246C46.2278 32.5604 46.5705 32.752 46.926 32.752C47.081 32.752 47.2381 32.7154 47.3852 32.6384C47.8681 32.3846 48.0527 31.7872 47.799 31.3043L45.8891 27.6781C45.6353 27.1972 45.0389 27.0105 44.555 27.2643C44.0721 27.5181 43.8875 28.1156 44.1412 28.5985L46.0511 32.2246Z" fill="black"/>
<path fill-rule="evenodd" clip-rule="evenodd" d="M48.9316 24.8795L52.3869 27.0842C52.5518 27.1889 52.7354 27.2393 52.9171 27.2393C53.243 27.2393 53.562 27.0783 53.7506 26.7829C54.0439 26.3226 53.9096 25.7122 53.4494 25.4188L49.9941 23.2141C49.535 22.9208 48.9237 23.0561 48.6304 23.5154C48.3371 23.9757 48.4714 24.5871 48.9316 24.8795Z" fill="black"/>
<path fill-rule="evenodd" clip-rule="evenodd" d="M55.3948 19.4819C55.9172 19.4819 56.3536 19.0722 56.3803 18.544C56.408 17.999 55.9883 17.536 55.4442 17.5083L51.35 17.303C50.8108 17.2823 50.3417 17.6949 50.3141 18.2399C50.2864 18.7849 50.7061 19.2479 51.2502 19.2756L55.3434 19.4809C55.3612 19.4819 55.378 19.4819 55.3948 19.4819Z" fill="black"/>
<path fill-rule="evenodd" clip-rule="evenodd" d="M49.1647 12.8219C49.3385 13.1667 49.6861 13.3643 50.0475 13.3643C50.1966 13.3643 50.3497 13.3307 50.4919 13.2586L54.1495 11.4093C54.6364 11.1633 54.8309 10.5686 54.585 10.0816C54.3382 9.59454 53.7447 9.39796 53.2578 9.64591L49.6001 11.4952C49.1143 11.7412 48.9188 12.3349 49.1647 12.8219Z" fill="black"/>
<path fill-rule="evenodd" clip-rule="evenodd" d="M48.8368 3.61873C48.3826 3.31745 47.7693 3.44092 47.4681 3.89729L45.2058 7.31606C44.9046 7.77045 45.029 8.38387 45.4842 8.68515C45.6511 8.79578 45.8407 8.84912 46.0284 8.84912C46.3483 8.84912 46.6633 8.69404 46.8529 8.40659L49.1153 4.98782C49.4165 4.53343 49.292 3.92001 48.8368 3.61873Z" fill="black"/>
</svg>
