<svg width="80" height="80" viewBox="0 0 80 80" fill="none" xmlns="http://www.w3.org/2000/svg">
<path fill-rule="evenodd" clip-rule="evenodd" d="M21.1131 65.8238C20.6785 65.7102 20.2528 65.5493 19.841 65.3438C17.3452 64.0964 16.0553 61.493 16.7151 59.2737C14.3427 57.7912 13.3007 55.0219 14.3891 52.8461C15.4845 50.6545 18.3516 49.8288 20.9778 50.8708C21.5951 50.135 22.4622 49.6214 23.4973 49.3883C24.8119 49.091 26.2509 49.2876 27.5486 49.9365C27.8321 50.0777 28.1047 50.2406 28.3654 50.4244C29.9022 49.3034 32.2035 49.1661 34.2074 50.1676C34.962 50.5458 35.6207 51.0515 36.1511 51.656C37.6652 50.8194 39.6849 50.8214 41.4884 51.7221C43.5141 52.7364 44.7447 54.6416 44.7852 56.5103C45.8262 56.3433 47.2257 56.3443 48.6064 57.0416C50.6143 58.0549 51.9713 60.209 52.639 63.4426C54.1738 70.8826 59.0726 73.8317 59.917 74.291C59.997 74.3305 60.0523 74.3591 60.081 74.3759L66.0069 77.3389C66.4948 77.5828 66.6923 78.1764 66.4484 78.6643C66.2746 79.0109 65.9259 79.2104 65.5634 79.2104C65.4153 79.2104 65.2652 79.1769 65.1229 79.1067L59.1585 76.123L59.155 76.1214C59.1383 76.1135 59.1139 76.1021 59.0844 76.0855L58.877 75.9828C57.6889 75.4327 52.6627 73.5038 46.0513 76.6149C43.0647 78.0203 40.5274 78.2287 38.5106 77.2292C37.1575 76.5586 36.3239 75.4751 35.8281 74.5556C35.3047 74.9556 34.6765 75.245 33.9694 75.405C32.6568 75.6993 31.2178 75.5058 29.919 74.8559C28.08 73.9374 26.8672 72.2939 26.6538 70.5527C25.8647 70.4865 25.0805 70.2643 24.3407 69.8949C22.6074 69.0278 21.4084 67.488 21.1131 65.8238ZM20.6084 52.8678C18.8346 51.98 16.8346 52.3681 16.1541 53.7291C15.4736 55.091 16.3625 56.9221 18.1343 57.812C18.1965 57.8426 18.2647 57.8722 18.3319 57.9008C18.5946 58.0124 18.8168 58.2435 18.9047 58.5151C18.9926 58.7867 18.9807 59.0929 18.8336 59.3369L18.8311 59.341C18.7795 59.425 18.7562 59.4629 18.7358 59.5028C18.0573 60.8618 18.9462 62.6929 20.721 63.5788C21.1812 63.8089 21.6622 63.957 22.1521 64.0192C22.6479 64.0825 23.0193 64.5071 23.0143 65.0079C23.0035 66.2098 23.8894 67.4641 25.2198 68.1298C25.9635 68.5021 26.7585 68.6582 27.5348 68.5811C27.8351 68.5574 28.1314 68.6592 28.3408 68.8764C28.5501 69.0937 28.6499 69.393 28.6104 69.6922C28.4435 70.9663 29.3422 72.3638 30.7971 73.0907C31.6899 73.5391 32.6588 73.6764 33.5299 73.4798C34.3259 73.2991 34.9383 72.8566 35.2504 72.2305C35.4193 71.8927 35.764 71.6843 36.1343 71.6843C36.1748 71.6843 36.2173 71.6873 36.2588 71.6922C36.6746 71.7445 37.0124 72.0547 37.1003 72.4645L37.1003 72.4646C37.1058 72.488 37.5989 74.5864 39.3985 75.4679C40.8445 76.1731 42.7971 75.9617 45.205 74.8279C48.0099 73.5085 50.5758 73.0058 52.7566 72.9267L44.9679 69.0315L39.5516 70.8369C39.4479 70.8715 39.3423 70.8883 39.2395 70.8883C38.8257 70.8883 38.4415 70.6265 38.3032 70.2127C38.1304 69.6942 38.4109 69.1352 38.9274 68.9634L42.4711 67.7821L37.9111 65.5017L32.4929 67.3061C32.3892 67.3397 32.2835 67.3565 32.1808 67.3565C31.7669 67.3565 31.3817 67.0947 31.2435 66.6809C31.0716 66.1624 31.3521 65.6034 31.8687 65.4306L35.4114 64.2504L30.563 61.8257L25.1447 63.6301C25.041 63.6637 24.9353 63.6805 24.8326 63.6805C24.4188 63.6805 24.0336 63.4188 23.8953 63.0049C23.7235 62.4864 24.004 61.9274 24.5205 61.7546L28.0632 60.5744L23.1022 58.0934C22.6143 57.8495 22.4168 57.2559 22.6608 56.768C22.9057 56.2801 23.4983 56.0846 23.9862 56.3265L29.0104 58.8391L27.7985 55.2026C27.6257 54.6841 27.9062 54.1251 28.4227 53.9533C28.9442 53.7784 29.5003 54.0609 29.6721 54.5774L31.5092 60.0885L36.3585 62.5141L35.1467 58.8776C34.9739 58.3591 35.2543 57.8001 35.7709 57.6283C36.2943 57.4534 36.8474 57.7359 37.0203 58.2524L38.8563 63.7625L43.4193 66.0439L42.2074 62.4064C42.0346 61.8879 42.3151 61.3289 42.8316 61.1571C43.3531 60.9833 43.9092 61.2647 44.081 61.7813L45.9171 67.2923L53.8223 71.2458C52.5373 69.4117 51.3492 66.9841 50.7013 63.8405C50.162 61.2262 49.1566 59.5314 47.7136 58.8026C46.3062 58.0905 44.7783 58.4845 44.1936 58.6811C43.9042 58.9951 43.4311 59.0949 43.0302 58.8944C42.5423 58.6524 42.3427 58.0618 42.5827 57.5729L42.5976 57.5443C43.2563 56.1843 42.3665 54.371 40.6025 53.4881C39.1714 52.774 37.5279 52.8777 36.6035 53.7439C36.3862 53.9483 36.0899 54.0431 35.7906 54.0017C35.4943 53.9602 35.2336 53.7863 35.0805 53.5296C34.6815 52.8609 34.0731 52.3098 33.3215 51.9335C31.7778 51.1622 30.0257 51.3449 29.1516 52.3651C28.9768 52.5706 28.725 52.695 28.4563 52.7098C28.1837 52.7227 27.924 52.6298 27.7274 52.4451C27.4064 52.1449 27.0489 51.895 26.6627 51.7024C25.7689 51.2531 24.797 51.1197 23.9289 51.3133C23.1329 51.494 22.5205 51.9375 22.2084 52.5637C22.0869 52.8056 21.8696 52.9943 21.6099 53.0733C21.3511 53.1503 21.0677 53.1266 20.8316 52.9923C20.7989 52.9737 20.7711 52.9578 20.7468 52.9439C20.6883 52.9103 20.6496 52.8881 20.6084 52.8678Z" fill="black"/>
<path fill-rule="evenodd" clip-rule="evenodd" d="M76.559 24.12C77.4331 24.7077 78.4543 25.6618 78.9877 27.1096C79.7649 29.2212 79.2889 31.721 77.5733 34.5426C73.6237 41.0334 75.1961 46.5317 75.5012 47.4423C75.5278 47.5086 75.5453 47.5603 75.5566 47.5939C75.5588 47.6003 75.5607 47.6061 75.5625 47.6111L77.8795 53.8234C78.0701 54.334 77.8114 54.9039 77.2998 55.0935C77.1852 55.135 77.0687 55.1558 76.9541 55.1558C76.5531 55.1558 76.1758 54.9108 76.0287 54.5138L73.7037 48.2798C73.6994 48.2693 73.6924 48.2505 73.6828 48.2239C73.6769 48.2078 73.6701 48.1888 73.6622 48.1672L73.5911 47.9776C73.1032 46.7746 70.7477 41.9233 63.7749 39.6883C60.6312 38.6799 58.6341 37.1026 57.8401 34.997C57.3057 33.5807 57.4351 32.2167 57.7008 31.2064C55.8045 31.0148 53.9803 29.5718 53.1714 27.404C52.4534 25.4781 52.6855 23.4494 53.7166 22.0292C53.1853 21.4435 52.7625 20.7463 52.4732 19.9719C51.7966 18.1557 51.9685 16.212 52.888 14.7937C52.648 14.4155 52.4455 14.0076 52.2855 13.576C51.7779 12.215 51.7374 10.7632 52.1709 9.48909C52.5453 8.39083 53.2307 7.52862 54.1334 7.00122C53.8144 5.81999 53.8381 4.59729 54.2094 3.50595C54.6687 2.16176 55.5941 1.17017 56.8149 0.713877C59.1122 -0.140435 61.7719 1.21264 62.9808 3.75878C63.9358 3.63829 64.9176 3.85853 65.8361 4.39384C66.9986 5.07235 67.9181 6.1953 68.4257 7.55627C68.5373 7.85454 68.6262 8.15972 68.6914 8.47083C70.5798 8.697 72.3576 10.1686 73.1398 12.2663C73.4351 13.0555 73.5704 13.8752 73.5467 14.6792C75.2247 15.1009 76.7012 16.4777 77.4054 18.366C77.9131 19.727 77.9536 21.1788 77.52 22.4529C77.2998 23.0959 76.9738 23.6588 76.559 24.12ZM73.1201 41.0613C73.4312 38.8431 74.2173 36.2574 75.8855 33.5157C77.2731 31.2353 77.6929 29.3094 77.1339 27.7904C76.5887 26.308 75.1991 25.5524 74.6391 25.3006C74.2114 25.3203 73.7996 25.0803 73.6435 24.6586C73.4549 24.148 73.7136 23.5801 74.2243 23.3895C74.8801 23.1455 75.3857 22.5846 75.6494 21.8112C75.9368 20.9668 75.9033 19.9871 75.5546 19.0528C74.9956 17.5575 73.7235 16.5145 72.4593 16.5145H72.4534H72.4514C72.1541 16.5145 71.8717 16.3802 71.684 16.1491C71.4963 15.916 71.4242 15.6118 71.4865 15.3195C71.6494 14.558 71.5813 13.7393 71.288 12.9531C70.6845 11.3354 69.284 10.2756 67.9437 10.4258C67.684 10.4603 67.4074 10.3764 67.2 10.2035C66.9926 10.0307 66.8652 9.78083 66.8465 9.51219C66.8168 9.07467 66.725 8.64702 66.5749 8.24407C66.2252 7.30779 65.6099 6.54533 64.8395 6.09596C64.1373 5.6851 63.3887 5.59325 62.7348 5.83324C62.4968 5.92509 62.2272 5.92213 61.9921 5.82238C61.7265 5.7088 61.5171 5.48757 61.4302 5.21202L61.4219 5.18555C61.3887 5.07907 61.3702 5.01976 61.3492 4.96215C60.6558 3.10638 58.9235 2.02788 57.5052 2.5612C56.8494 2.80515 56.3437 3.36613 56.08 4.13945C55.7926 4.98388 55.8262 5.96361 56.1748 6.89792C56.1965 6.95636 56.2207 7.01092 56.2443 7.0642C56.2498 7.07665 56.2553 7.08903 56.2608 7.10137C56.3763 7.36309 56.3822 7.6821 56.2608 7.94086C56.1393 8.20061 55.92 8.41394 55.6455 8.49196C55.6193 8.49939 55.597 8.50559 55.5773 8.51103C55.5264 8.52514 55.4938 8.53417 55.4618 8.54628C54.8109 8.78924 54.3052 9.35022 54.0415 10.1235C53.7541 10.968 53.7877 11.9477 54.1363 12.882C54.3171 13.364 54.5679 13.7995 54.883 14.1788C55.203 14.564 55.1852 15.1269 54.8405 15.4904C54.0138 16.3624 53.8064 17.8844 54.3259 19.278C54.6173 20.0572 55.0953 20.7169 55.7116 21.1861C55.9516 21.3688 56.0948 21.6503 56.1008 21.9525C56.1067 22.2537 55.9743 22.5421 55.7422 22.7337C54.7516 23.5515 54.4563 25.187 55.0242 26.7099C55.7185 28.5706 57.4489 29.6482 58.8692 29.1178C58.9827 29.0763 59.0993 29.0556 59.2148 29.0556C59.5023 29.0556 59.7827 29.181 59.9744 29.4111C60.243 29.7331 60.2785 30.1894 60.0632 30.5489L60.0629 30.5494C60.0405 30.589 58.9835 32.4524 59.6968 34.3138C60.2736 35.8169 61.8499 36.9922 64.3813 37.8041C67.3334 38.7502 69.5526 40.1319 71.203 41.561L68.16 33.4022L62.9669 31.0299C62.4702 30.8037 62.2529 30.218 62.479 29.7222C62.7052 29.2254 63.2919 29.0082 63.7867 29.2343L67.1842 30.7859L65.4015 26.0067L60.2074 23.6344C59.7106 23.4083 59.4934 22.8226 59.7195 22.3268C59.9447 21.83 60.5334 21.6117 61.0272 21.8389L64.4257 23.3915L62.5304 18.3091L57.3373 15.9378C56.8405 15.7126 56.6232 15.1259 56.8494 14.6301C57.0736 14.1343 57.6593 13.9161 58.1571 14.1422L61.5546 15.6938L59.6158 10.4959C59.4252 9.98527 59.684 9.41541 60.1956 9.22578C60.7062 9.03714 61.2761 9.29393 61.4657 9.80552L63.4292 15.0696L65.0223 11.5823C65.2484 11.0855 65.8351 10.8672 66.3299 11.0944C66.8267 11.3206 67.044 11.9062 66.8178 12.402L64.404 17.6859L66.2993 22.7683L67.8924 19.2799C68.1186 18.7841 68.7052 18.5659 69.2 18.792C69.6968 19.0182 69.9141 19.6039 69.6879 20.0997L67.2741 25.3835L69.0568 30.1627L70.6499 26.6754C70.8751 26.1786 71.4638 25.9613 71.9576 26.1875C72.4544 26.4136 72.6717 26.9993 72.4455 27.4951L70.0317 32.779L73.1201 41.0613Z" fill="black"/>
<path fill-rule="evenodd" clip-rule="evenodd" d="M0.647888 69.6013C0.647888 65.7556 3.77578 62.6279 7.6217 62.6279C11.4666 62.6279 14.5955 65.7556 14.5955 69.6013C14.5955 73.447 11.4676 76.5747 7.6217 76.5747C3.77578 76.5747 0.647888 73.447 0.647888 69.6013ZM2.62317 69.6006C2.62317 72.3562 4.86613 74.5991 7.62167 74.5991C10.3772 74.5991 12.6202 72.3562 12.6202 69.6006C12.6202 66.845 10.3772 64.6021 7.62167 64.6021C4.86613 64.6021 2.62317 66.845 2.62317 69.6006Z" fill="black"/>
<path fill-rule="evenodd" clip-rule="evenodd" d="M54.7852 37.6604C54.5995 35.8065 53.7007 34.1374 52.2588 32.9581C50.8168 31.7789 49.0035 31.2337 47.1477 31.4194C45.2938 31.605 43.6247 32.5028 42.4455 33.9458C41.2672 35.3878 40.721 37.2031 40.9067 39.0569C41.2178 42.1443 43.4855 44.5749 46.4099 45.1823C46.1511 46.0465 46.0612 46.9611 46.1541 47.8856C46.3398 49.7394 47.2375 51.4095 48.6805 52.5888C49.9378 53.6159 51.4785 54.1631 53.0805 54.1631C53.3165 54.1631 53.5536 54.1512 53.7926 54.1275C57.6178 53.7414 60.4168 50.3162 60.0316 46.49C59.7185 43.3907 57.4084 40.968 54.5086 40.3626C54.7713 39.4915 54.877 38.5799 54.7852 37.6604ZM42.8731 38.8586C42.7388 37.5291 43.1309 36.2292 43.9753 35.1951C44.8198 34.1609 46.0158 33.5179 47.3452 33.3846C47.5161 33.3668 47.6869 33.3589 47.8558 33.3589C49.0044 33.3589 50.1077 33.751 51.0084 34.4879C52.0425 35.3324 52.6854 36.5285 52.8188 37.857C52.9007 38.6759 52.7832 39.4898 52.4761 40.2414C52.4622 40.243 52.4478 40.2442 52.4333 40.2455C52.4199 40.2467 52.4064 40.2479 52.3931 40.2493L52.3743 40.2523C52.1304 40.278 51.8904 40.3165 51.6533 40.3659C51.6177 40.3733 51.5833 40.3825 51.5488 40.3918L51.5488 40.3918C51.5278 40.3975 51.5067 40.4031 51.4854 40.4084C51.2968 40.4528 51.1101 40.5022 50.9274 40.5615C50.8895 40.5737 50.852 40.5877 50.8146 40.6017L50.8146 40.6017L50.8144 40.6018C50.7974 40.6082 50.7804 40.6146 50.7635 40.6207C50.5807 40.6849 50.402 40.7551 50.2262 40.8341C50.1758 40.8568 50.1274 40.8805 50.077 40.9052C49.9022 40.9892 49.7304 41.08 49.5635 41.1788C49.5161 41.2065 49.4686 41.2351 49.4212 41.2647C49.2593 41.3655 49.1022 41.4731 48.9491 41.5867L48.9237 41.6054C48.8836 41.6348 48.8431 41.6644 48.804 41.6954C48.6598 41.808 48.5215 41.9285 48.3862 42.0529C48.3683 42.0694 48.3502 42.0855 48.3321 42.1017L48.332 42.1018C48.3 42.1303 48.2679 42.159 48.237 42.1893C48.1057 42.3177 47.9812 42.454 47.8588 42.5932C47.8419 42.6125 47.8247 42.6311 47.8075 42.6497C47.7816 42.6778 47.7557 42.7057 47.7314 42.7355C47.7254 42.7429 47.7188 42.7498 47.7121 42.7567L47.7121 42.7567L47.7121 42.7567C47.7054 42.7636 47.6988 42.7705 47.6928 42.7779C47.5467 42.9557 47.4114 43.1404 47.2849 43.3291C44.9669 43.0703 43.1121 41.2331 42.8731 38.8586ZM53.5951 52.1612C56.3358 51.8846 58.3417 49.4282 58.0661 46.6864C57.8064 44.1144 55.6286 42.1894 53.0963 42.1904C52.9551 42.1904 52.8129 42.1993 52.6696 42.2112C52.6587 42.212 52.6478 42.2123 52.6371 42.2126C52.6227 42.213 52.6083 42.2134 52.5936 42.2151H52.5926C52.5916 42.2151 52.5909 42.2154 52.5901 42.2156C52.5894 42.2159 52.5887 42.2161 52.5877 42.2161C52.2835 42.2477 51.9921 42.3139 51.7077 42.3959C51.6857 42.4025 51.6636 42.4087 51.6415 42.4148C51.604 42.4253 51.5666 42.4358 51.5299 42.4482C51.2593 42.5381 50.9986 42.6477 50.7517 42.7791C50.7254 42.7933 50.6998 42.8087 50.6741 42.8242C50.6534 42.8366 50.6326 42.8492 50.6114 42.8611C50.3783 42.9954 50.1551 43.1445 49.9487 43.3124C49.9394 43.32 49.9297 43.3269 49.9199 43.3339C49.9079 43.3425 49.8959 43.3511 49.8845 43.3608C49.6643 43.5465 49.4638 43.753 49.2781 43.9732C49.2459 44.0109 49.2155 44.0494 49.1844 44.0888L49.1774 44.0977C48.4021 45.0804 47.9853 46.3476 48.1206 47.6889C48.2539 49.0173 48.8969 50.2144 49.9309 51.0589C50.964 51.9034 52.2657 52.3004 53.5951 52.1612Z" fill="black"/>
<path fill-rule="evenodd" clip-rule="evenodd" d="M9.4005 67.8218C9.01432 67.4357 8.39013 67.4357 8.00396 67.8218L7.62173 68.2039L7.23951 67.8218C6.85334 67.4357 6.22915 67.4357 5.84297 67.8218C5.4568 68.2079 5.4568 68.832 5.84297 69.2181L6.22519 69.6002L5.84297 69.9824C5.4568 70.3685 5.4568 70.9925 5.84297 71.3786C6.03557 71.5712 6.2884 71.668 6.54124 71.668C6.79408 71.668 7.04692 71.5712 7.23951 71.3786L7.62173 70.9965L8.00396 71.3786C8.19655 71.5712 8.44939 71.668 8.70223 71.668C8.95506 71.668 9.2079 71.5712 9.4005 71.3786C9.78667 70.9925 9.78667 70.3685 9.4005 69.9824L9.01827 69.6002L9.4005 69.2181C9.78568 68.832 9.78568 68.2079 9.4005 67.8218Z" fill="black"/>
<path fill-rule="evenodd" clip-rule="evenodd" d="M65.9082 67.2791C65.9082 63.4334 69.0361 60.3057 72.882 60.3057C76.7279 60.3057 79.8558 63.4334 79.8558 67.2791C79.8558 71.1247 76.7279 74.2524 72.882 74.2524C69.0361 74.2524 65.9082 71.1247 65.9082 67.2791ZM67.8834 67.2793C67.8834 70.0349 70.1264 72.2778 72.8819 72.2778C75.6375 72.2778 77.8804 70.0349 77.8804 67.2793C77.8804 64.5237 75.6375 62.2808 72.8819 62.2808C70.1264 62.2808 67.8834 64.5237 67.8834 67.2793Z" fill="black"/>
<path fill-rule="evenodd" clip-rule="evenodd" d="M74.6607 65.5C74.2746 65.1139 73.6504 65.1139 73.2642 65.5L72.882 65.8822L72.4998 65.5C72.1136 65.1139 71.4894 65.1139 71.1032 65.5C70.7171 65.8861 70.7171 66.5102 71.1032 66.8963L71.4854 67.2784L71.1032 67.6606C70.7171 68.0467 70.7171 68.6708 71.1032 69.0569C71.2958 69.2494 71.5487 69.3462 71.8015 69.3462C72.0543 69.3462 72.3072 69.2494 72.4998 69.0569L72.882 68.6747L73.2642 69.0569C73.4568 69.2494 73.7096 69.3462 73.9625 69.3462C74.2153 69.3462 74.4682 69.2494 74.6607 69.0569C75.0469 68.6708 75.0469 68.0467 74.6607 67.6606L74.2785 67.2784L74.6607 66.8963C75.0459 66.5112 75.0459 65.8861 74.6607 65.5Z" fill="black"/>
<path fill-rule="evenodd" clip-rule="evenodd" d="M48.3921 40.1227C48.5778 40.2758 48.801 40.3508 49.0232 40.3508C49.3066 40.3508 49.5881 40.2293 49.7837 39.9953C50.1333 39.5756 50.075 38.9524 49.6563 38.6048L49.2405 38.2591L49.5862 37.8433C49.9348 37.4236 49.8765 36.8014 49.4568 36.4528C49.037 36.1042 48.4148 36.1625 48.0662 36.5822L47.7215 36.996L47.3066 36.6513C46.8839 36.3017 46.2617 36.361 45.916 36.7787C45.5664 37.1985 45.6247 37.8216 46.0434 38.1692L46.4592 38.5149L46.1136 38.9307C45.7649 39.3504 45.8232 39.9726 46.2429 40.3212C46.4276 40.4743 46.6508 40.5483 46.8731 40.5483C47.1565 40.5483 47.438 40.4269 47.6345 40.1918L47.9792 39.777L48.3921 40.1227Z" fill="black"/>
<path fill-rule="evenodd" clip-rule="evenodd" d="M52.5501 45.4535C52.1274 45.104 51.5062 45.1632 51.1595 45.5809C50.8099 46.0005 50.8681 46.6235 51.2869 46.9711L51.7027 47.3166L51.357 47.7323C51.0084 48.1519 51.0666 48.774 51.4864 49.1225C51.6711 49.2756 51.8943 49.3496 52.1165 49.3496C52.4 49.3496 52.6815 49.2282 52.878 48.9932L53.2227 48.5785L53.6375 48.9231C53.8232 49.0761 54.0464 49.1512 54.2686 49.1512C54.5521 49.1512 54.8336 49.0297 55.0291 48.7957C55.3787 48.3761 55.3205 47.753 54.9017 47.4055L54.4859 47.0599L54.8316 46.6442C55.1802 46.2246 55.122 45.6026 54.7022 45.254C54.2824 44.9055 53.6602 44.9638 53.3116 45.3834L52.9669 45.7971L52.5501 45.4535Z" fill="black"/>
<path fill-rule="evenodd" clip-rule="evenodd" d="M5.6158 42.3439L5.90814 42.3883C7.36888 42.6115 8.62419 43.536 9.26814 44.8634L9.39753 45.13C10.479 47.3582 12.6894 48.7527 15.1664 48.7685C15.1738 48.7685 15.181 48.7688 15.1881 48.769C15.1918 48.7692 15.1955 48.7693 15.1991 48.7694C15.2027 48.7695 15.2062 48.7695 15.2099 48.7695C17.6691 48.7685 19.8785 47.4066 20.9827 45.2051L21.1141 44.9414C21.7758 43.6219 23.044 42.7132 24.5077 42.5098L24.798 42.4683C27.2504 42.1276 29.2603 40.4574 30.0405 38.1068C30.8207 35.7562 30.2114 33.216 28.4504 31.4747C27.2682 30.3073 26.7358 28.6342 27.0282 26.9997C27.1901 26.092 27.197 25.2723 27.0479 24.5128C27.5763 24.9266 28.0158 25.456 28.318 26.0772L28.4474 26.3439C29.5289 28.572 31.7383 29.9666 34.2153 29.9824H34.2588C36.718 29.9824 38.9274 28.6204 40.0306 26.4219L40.164 26.1552C40.8257 24.8357 42.0938 23.9271 43.5556 23.7236L43.8499 23.6831C46.3022 23.3424 48.3121 21.6723 49.0924 19.3217C49.8726 16.971 49.2632 14.4308 47.5022 12.6896C46.32 11.5222 45.7877 9.84907 46.079 8.21451C46.5136 5.77599 45.5447 3.34834 43.5506 1.88069C41.5556 0.412046 38.9511 0.205627 36.7556 1.3434L36.4879 1.48069C35.1763 2.16019 33.6178 2.14933 32.3131 1.45303L32.0533 1.31476C29.8686 0.146367 27.2603 0.319207 25.2484 1.76217C23.2356 3.20414 22.2351 5.61797 22.638 8.06241L22.6864 8.35377C22.9254 9.81154 22.4336 11.292 21.3699 12.3152L21.1575 12.5197C19.3719 14.2362 18.7299 16.7696 19.4795 19.1301C19.5041 19.2069 19.5349 19.2798 19.5658 19.3526L19.5658 19.3526L19.5658 19.3526C19.5856 19.3996 19.6055 19.4465 19.6237 19.4945C18.9649 19.6051 18.321 19.8086 17.7007 20.1296L17.436 20.2668C16.1254 20.9444 14.5649 20.9355 13.2612 20.2392L13.0015 20.1009C10.8178 18.9315 8.20938 19.1054 6.19654 20.5483C4.1837 21.9903 3.1832 24.4041 3.58617 26.8486L3.63456 27.1399C3.87357 28.5977 3.38172 30.0782 2.31802 31.1014L2.10567 31.3058C0.321968 33.0224 -0.320008 35.5547 0.43061 37.9152C1.18123 40.2757 3.1674 41.9725 5.6158 42.3439ZM22.5285 13.9403L22.7408 13.7359C24.2727 12.2624 24.9808 10.1301 24.6351 8.03146L24.5867 7.73912C24.3033 6.01772 24.9798 4.38323 26.3991 3.36599C27.1902 2.7991 28.089 2.5127 28.9976 2.5127C29.7176 2.5127 30.4435 2.69343 31.125 3.05687L31.3838 3.19513C33.2613 4.19854 35.5082 4.21138 37.3917 3.23563L37.6593 3.09835C39.208 2.29641 40.9729 2.43566 42.3773 3.47068C43.7828 4.50569 44.4386 6.14907 44.1324 7.86652C43.7274 10.142 44.4672 12.4698 46.1116 14.0954C47.3541 15.321 47.7669 17.0414 47.2158 18.6976C46.6657 20.3548 45.3057 21.4857 43.5773 21.7256L43.283 21.7661C41.1763 22.0585 39.3512 23.368 38.3981 25.2662L38.2647 25.5329C37.4865 27.0834 35.9912 28.0068 34.2588 28.0068C34.2534 28.0068 34.2482 28.0066 34.243 28.0063C34.2378 28.0061 34.2327 28.0058 34.2272 28.0058C32.482 27.995 30.9857 27.0508 30.2233 25.4805L30.0939 25.2139C29.1655 23.3009 27.3561 21.9686 25.2544 21.6496L24.9621 21.6052C23.2356 21.3425 21.8905 20.1929 21.3611 18.5297C20.8337 16.8666 21.2692 15.1521 22.5285 13.9403ZM3.68986 32.522L3.47751 32.7265C2.21925 33.9373 1.78468 35.6529 2.31209 37.317C2.84147 38.9792 4.18665 40.1288 5.91208 40.3916L6.20442 40.436C8.30713 40.756 10.1165 42.0873 11.0439 44.0004L11.1733 44.2671C11.9358 45.8374 13.4321 46.7816 15.1782 46.7925C15.1837 46.7925 15.1888 46.7927 15.194 46.793C15.1992 46.7932 15.2044 46.7935 15.2098 46.7935C16.9422 46.7935 18.4375 45.87 19.2157 44.3194L19.3471 44.0557C20.3012 42.1545 22.1273 40.8449 24.234 40.5525L24.5264 40.5121C26.2557 40.2721 27.6157 39.1412 28.1658 37.4839C28.717 35.8277 28.3041 34.1072 27.0617 32.8815C25.4172 31.2559 24.6775 28.928 25.0834 26.6525C25.3155 25.3518 25.1357 24.4125 24.4957 23.5207C22.9955 23.252 21.6819 22.4886 20.7318 21.3765C20.0148 21.3637 19.2859 21.5325 18.6074 21.8841L18.3437 22.0204C16.4543 22.9962 14.2084 22.9844 12.3328 21.9809L12.074 21.8427C10.5333 21.0209 8.76639 21.1355 7.34812 22.1518C5.92887 23.1691 5.25233 24.8036 5.53578 26.5251L5.58418 26.8174C5.92985 28.9162 5.22171 31.0485 3.68986 32.522Z" fill="black"/>
<path fill-rule="evenodd" clip-rule="evenodd" d="M17.2009 39.8206C16.5096 40.0408 15.8074 40.1445 15.118 40.1445C12.1945 40.1445 9.47553 38.2689 8.54319 35.3383C7.39257 31.7144 9.40244 27.8297 13.0252 26.679C16.6498 25.5273 20.5323 27.5393 21.6839 31.1622C22.8345 34.7852 20.8237 38.6699 17.2009 39.8206ZM15.119 28.3291C14.6182 28.3291 14.1145 28.4061 13.6237 28.5622C11.04 29.3829 9.60591 32.1551 10.4266 34.7407C10.8237 35.993 11.6859 37.0152 12.8523 37.6186C14.0177 38.2211 15.3501 38.3357 16.6034 37.9376C17.8558 37.5406 18.878 36.6784 19.4814 35.5121C20.0859 34.3447 20.1985 33.0134 19.8014 31.7611C19.4044 30.5088 18.5422 29.4866 17.3748 28.8832C16.6656 28.5148 15.8953 28.3291 15.119 28.3291Z" fill="black"/>
<path fill-rule="evenodd" clip-rule="evenodd" d="M36.2508 21.034C35.5595 21.2542 34.8573 21.3579 34.1679 21.3579C31.2444 21.3579 28.5254 19.4833 27.593 16.5518C27.035 14.7977 27.194 12.93 28.0404 11.2944C28.8869 9.6588 30.32 8.45087 32.075 7.89382C35.6978 6.74218 39.5822 8.75409 40.7328 12.3769C41.2909 14.131 41.1318 15.9987 40.2854 17.6334C39.439 19.269 38.0059 20.4769 36.2508 21.034ZM32.6736 9.77605C31.4213 10.1731 30.399 11.0353 29.7956 12.2026C29.1921 13.369 29.0776 14.7023 29.4766 15.9546C29.8736 17.2068 30.7358 18.229 31.9023 18.8325C33.0677 19.4349 34.399 19.5485 35.6534 19.1515C36.9057 18.7544 37.9279 17.8922 38.5314 16.7259C39.1348 15.5585 39.2484 14.2272 38.8504 12.9749C38.4533 11.7226 37.5911 10.7005 36.4247 10.097C35.7146 9.72864 34.9452 9.54297 34.1689 9.54297C33.6682 9.54297 33.1645 9.62 32.6736 9.77605Z" fill="black"/>
</svg>
